<svg viewBox="0 0 420 200" xmlns="http://www.w3.org/2000/svg" font-family="Inter,sans-serif">
<rect width="420" height="200" fill="#ffffff"/>
<rect x="14" y="24" width="112" height="112" rx="10" fill="#eef1ff" stroke="#c7cdfa" stroke-width="2"/>
<circle cx="32" cy="42" r="7" fill="#4a6bff"/>
<circle cx="32" cy="66" r="7" fill="#4a6bff"/>
<circle cx="32" cy="90" r="7" fill="#4a6bff"/>
<circle cx="32" cy="114" r="7" fill="#4a6bff"/>
<circle cx="56" cy="42" r="7" fill="#4a6bff"/>
<circle cx="56" cy="66" r="7" fill="#4a6bff"/>
<circle cx="56" cy="90" r="7" fill="#4a6bff"/>
<circle cx="56" cy="114" r="7" fill="#4a6bff"/>
<circle cx="80" cy="42" r="7" fill="#4a6bff"/>
<circle cx="80" cy="66" r="7" fill="#4a6bff"/>
<circle cx="80" cy="90" r="7" fill="#4a6bff"/>
<circle cx="80" cy="114" r="7" fill="#4a6bff"/>
<circle cx="104" cy="42" r="7" fill="#4a6bff"/>
<circle cx="104" cy="66" r="7" fill="#4a6bff"/>
<circle cx="104" cy="90" r="7" fill="#4a6bff"/>
<circle cx="104" cy="114" r="7" fill="#4a6bff"/>
<text x="70" y="158" text-anchor="middle" font-size="15" font-weight="800" fill="#22308a">Solid</text>
<text x="70" y="176" text-anchor="middle" font-size="12" fill="#667085" font-style="italic">Sólido</text>
<path d="M154 60 Q168 48 182 60 T210 60 T238 60 T266 60 L266 136 L154 136 Z" fill="#eaf3ff" stroke="#a9cdfb" stroke-width="2"/>
<circle cx="186" cy="102" r="6.5" fill="#2f8fe0"/>
<circle cx="198" cy="106" r="6.5" fill="#2f8fe0"/>
<circle cx="222" cy="76" r="6.5" fill="#2f8fe0"/>
<circle cx="165" cy="119" r="6.5" fill="#2f8fe0"/>
<circle cx="188" cy="85" r="6.5" fill="#2f8fe0"/>
<circle cx="256" cy="98" r="6.5" fill="#2f8fe0"/>
<circle cx="241" cy="99" r="6.5" fill="#2f8fe0"/>
<circle cx="223" cy="80" r="6.5" fill="#2f8fe0"/>
<circle cx="222" cy="121" r="6.5" fill="#2f8fe0"/>
<circle cx="212" cy="114" r="6.5" fill="#2f8fe0"/>
<circle cx="226" cy="76" r="6.5" fill="#2f8fe0"/>
<circle cx="234" cy="105" r="6.5" fill="#2f8fe0"/>
<text x="210" y="158" text-anchor="middle" font-size="15" font-weight="800" fill="#22308a">Liquid</text>
<text x="210" y="176" text-anchor="middle" font-size="12" fill="#667085" font-style="italic">Líquido</text>
<rect x="294" y="24" width="112" height="112" rx="10" fill="#fff7e6" stroke="#f3d18a" stroke-width="2" stroke-dasharray="6 5"/>
<circle cx="334" cy="48" r="6" fill="#e8a33d"/>
<line x1="334" y1="48" x2="337" y2="39" stroke="#e8a33d" stroke-width="1.4" opacity="0.6"/>
<circle cx="353" cy="68" r="6" fill="#e8a33d"/>
<line x1="353" y1="68" x2="344" y2="68" stroke="#e8a33d" stroke-width="1.4" opacity="0.6"/>
<circle cx="307" cy="74" r="6" fill="#e8a33d"/>
<line x1="307" y1="74" x2="299" y2="66" stroke="#e8a33d" stroke-width="1.4" opacity="0.6"/>
<circle cx="343" cy="110" r="6" fill="#e8a33d"/>
<line x1="343" y1="110" x2="336" y2="105" stroke="#e8a33d" stroke-width="1.4" opacity="0.6"/>
<circle cx="362" cy="121" r="6" fill="#e8a33d"/>
<line x1="362" y1="121" x2="363" y2="119" stroke="#e8a33d" stroke-width="1.4" opacity="0.6"/>
<circle cx="394" cy="38" r="6" fill="#e8a33d"/>
<line x1="394" y1="38" x2="401" y2="34" stroke="#e8a33d" stroke-width="1.4" opacity="0.6"/>
<circle cx="317" cy="45" r="6" fill="#e8a33d"/>
<line x1="317" y1="45" x2="313" y2="51" stroke="#e8a33d" stroke-width="1.4" opacity="0.6"/>
<circle cx="321" cy="88" r="6" fill="#e8a33d"/>
<line x1="321" y1="88" x2="323" y2="85" stroke="#e8a33d" stroke-width="1.4" opacity="0.6"/>
<circle cx="354" cy="40" r="6" fill="#e8a33d"/>
<line x1="354" y1="40" x2="346" y2="34" stroke="#e8a33d" stroke-width="1.4" opacity="0.6"/>
<text x="350" y="158" text-anchor="middle" font-size="15" font-weight="800" fill="#22308a">Gas</text>
<text x="350" y="176" text-anchor="middle" font-size="12" fill="#667085" font-style="italic">Gás</text>
</svg>